<?xml version="1.0" encoding="utf-8"?>
<!-- Generator: Adobe Illustrator 23.0.6, SVG Export Plug-In . SVG Version: 6.00 Build 0)  -->
<svg version="1.1" id="Layer_1" xmlns="http://www.w3.org/2000/svg" xmlns:xlink="http://www.w3.org/1999/xlink" x="0px" y="0px"
	 viewBox="0 0 500 500" style="enable-background:new 0 0 500 500;" xml:space="preserve">
<style type="text/css">
	.st0{fill:#FFFFFF;}
</style>
<g>
	<path class="st0" d="M424.585,199.112c-0.259-1.389-0.546-2.774-0.881-4.15c-0.587-2.405-1.291-4.787-2.113-7.137
		c-2.876-8.225-7.19-16.059-12.942-23.111c-1.643-2.015-3.404-3.966-5.282-5.844l0,0c-0.939-0.939-1.896-1.849-2.871-2.729
		c-4.872-4.402-10.172-8.07-15.756-11.005c-4.467-2.348-9.117-4.226-13.876-5.635c-2.38-0.704-4.787-1.291-7.212-1.761
		c-1.213-0.235-2.43-0.44-3.65-0.616c-3.662-0.528-7.354-0.792-11.047-0.792c-2.462,0-4.923,0.117-7.376,0.352
		c-9.81,0.939-19.474,3.756-28.409,8.452c-5.584,2.935-10.884,6.603-15.756,11.005c-0.974,0.88-1.932,1.79-2.871,2.729
		l-70.428,70.428h0l-70.47,70.47c-30.051,30.051-30.051,78.773,0,108.824h0c15.025,15.025,34.719,22.538,54.412,22.538
		c19.693,0,39.386-7.513,54.412-22.538l70.47-70.47l70.428-70.428c1.878-1.878,3.639-3.829,5.282-5.844
		c4.109-5.037,7.483-10.473,10.125-16.166C425.565,231.047,427.495,214.717,424.585,199.112z M254.195,400.319
		c-12.324,12.324-28.71,19.111-46.139,19.111s-33.815-6.787-46.139-19.111c-12.324-12.324-19.111-28.71-19.111-46.139
		c0-17.429,6.787-33.815,19.111-46.139l70.47-70.47l92.277,92.277L254.195,400.319z M95.844,206.293
		c-25.696-25.696-29.404-65.036-11.151-94.686c3.439-5.586,11.254-6.398,15.892-1.76l91.705,91.705
		c4.638,4.638,3.826,12.453-1.76,15.892C160.88,235.696,121.541,231.989,95.844,206.293z M109.02,101.735
		c-4.75-4.75-3.694-12.672,2.086-16.095c29.515-17.477,68.189-13.544,93.562,11.829s29.306,64.047,11.829,93.562
		c-3.423,5.78-11.345,6.836-16.095,2.086L109.02,101.735z"/>
</g>
</svg>
