<?xml version="1.0" encoding="utf-8"?>
<!-- Generator: Adobe Illustrator 23.0.6, SVG Export Plug-In . SVG Version: 6.00 Build 0)  -->
<svg version="1.1" id="Layer_1" xmlns="http://www.w3.org/2000/svg" xmlns:xlink="http://www.w3.org/1999/xlink" x="0px" y="0px"
	 viewBox="0 0 113 186" style="enable-background:new 0 0 113 186;" xml:space="preserve">
<style type="text/css">
	.st0{fill:#54D169;}
	.st1{fill:#AFF57A;}
</style>
<path class="st0" d="M111.594,69.325c-0.001-11.697-9.502-21.359-21.178-21.538l-2.584-0.04V35.872h7.947
	c1.032,0,1.873-0.842,1.873-1.876V12.143c-0.001-6.457-5.247-11.71-11.693-11.71H27.041c-6.448,0-11.694,5.253-11.694,11.71v21.853
	c0,1.035,0.84,1.876,1.873,1.876h7.947v11.875l-2.584,0.04C10.907,47.966,1.406,57.628,1.406,69.326v94.698
	c0,11.879,9.651,21.544,21.514,21.544h67.161c11.863,0,21.514-9.665,21.514-21.544V69.325L111.594,69.325z M78.238,4.185h7.722
	c4.307,0,7.946,3.644,7.946,7.958V32.12H78.238V4.185z M84.086,35.872v11.91H28.914v-11.91H84.086z M58.235,4.185h16.533V32.12
	H58.235V4.185z M37.99,4.185h16.775V32.12H37.99V4.185z M19.094,32.12V12.143c0-4.313,3.639-7.958,7.947-7.958h7.477V32.12H19.094z
	 M5.152,86.742l68.463-0.014c1.223,0,2.214,0.992,2.215,2.217l0.011,57.63c0,1.225-0.991,2.218-2.214,2.218H5.152V86.742z
	 M5.152,152.545H73.23c3.506,0,6.359-2.802,6.359-6.247v-56.94c0-3.511-2.853-6.368-6.359-6.368H5.152V69.326
	c0-9.81,7.97-17.792,17.767-17.792h67.161c9.797,0,17.767,7.982,17.767,17.792v94.697c0,9.81-7.97,17.792-17.767,17.792H22.919
	c-9.797,0-17.767-7.982-17.767-17.792V152.545z"/>
<path class="st1" d="M78.238,4.185h7.722c4.307,0,7.946,3.644,7.946,7.958V32.12H78.238V4.185z M58.235,32.12h16.533V4.185H58.235
	V32.12z M37.99,32.12h16.775V4.185H37.99V32.12z M34.518,32.12V4.185h-7.477c-4.308,0-7.947,3.644-7.947,7.958V32.12H34.518z
	 M5.152,148.793h68.475c1.223,0,2.214-0.993,2.214-2.218l-0.011-57.63c0-1.225-0.992-2.217-2.215-2.217L5.152,86.742V148.793z
	 M42.054,164.566c1.106,0,2.208-0.251,3.237-0.75c1.788-0.867,3.129-2.374,3.787-4.272c0.854-2.466,0.324-5.079-1.17-6.999H29.923
	l-2.117,6.114l-12.258-4.257c-1.082-0.376-1.986-1.032-2.672-1.856h-1.62c0.865,1.396,2.193,2.517,3.861,3.097l24.518,8.515
	C40.424,164.43,41.24,164.566,42.054,164.566z M28.75,82.99l-5.12-6.64c-1.206-1.564-2.955-2.565-4.925-2.818
	c-1.971-0.252-3.913,0.272-5.5,1.5c-2.481,1.919-3.405,5.112-2.577,7.958H28.75z M90.749,144.734l-11.16-6.807v-17.421l18.89,11.521
	c3.49,2.13,4.601,6.706,2.475,10.201c-1.043,1.716-2.671,2.903-4.602,3.372c-0.588,0.144-1.183,0.214-1.772,0.214
	C93.237,145.814,91.919,145.448,90.749,144.734z M80.35,136.854l11.082,6.759c1.385,0.845,3.02,1.1,4.609,0.712
	c1.589-0.386,2.93-1.363,3.773-2.751c1.767-2.905,0.854-6.673-2.021-8.426l-11.081-6.758L80.35,136.854z M88.003,145.554
	c-0.731-1.834-2.14-3.276-3.964-4.061c-1.428-0.613-2.969-0.758-4.451-0.443v5.249c0,3.444-2.853,6.247-6.359,6.247h-4.393
	l2.509,6.288l-12.05,4.822c-1.505,0.602-3.163,0.578-4.665-0.066c-1.502-0.646-2.662-1.832-3.275-3.371
	c-1.168-2.928,0.094-6.235,2.82-7.672h-2.226c-2.152,2.031-2.972,5.253-1.801,8.188c0.731,1.834,2.14,3.276,3.964,4.061
	c0.945,0.406,1.94,0.609,2.935,0.609c0.927,0,1.853-0.177,2.737-0.53l24.098-9.643C87.677,153.712,89.531,149.385,88.003,145.554z
	 M100.612,93.985c-1.825-0.782-3.838-0.81-5.667-0.077l-15.357,6.144v1.414l3.795-1.518l4.539,11.378l-8.334,3.335v1.414
	l20.87-8.351c3.795-1.519,5.649-5.846,4.121-9.677C103.848,96.211,102.438,94.768,100.612,93.985z M106.009,81.783
	c-0.49,1.947-1.694,3.563-3.398,4.583c-1.17,0.7-2.477,1.059-3.799,1.059c-0.604,0-1.212-0.075-1.812-0.227L86.272,84.49
	c2.345,1.479,3.773,4.215,3.427,7.15c-0.234,1.993-1.22,3.751-2.778,4.983c-1.325,1.048-2.926,1.603-4.58,1.603
	c-0.29,0-0.583-0.017-0.876-0.052l-1.876-0.222v-1.321l2.031,0.24c1.608,0.19,3.205-0.263,4.488-1.277s2.095-2.462,2.285-4.075
	c0.397-3.378-2-6.422-5.341-6.816l-6.509-0.769c-0.966-0.594-2.099-0.943-3.313-0.943H50.869c0.329-0.394,0.698-0.759,1.11-1.084
	c1.559-1.232,3.496-1.784,5.456-1.551l23.407,2.765l-9.004-2.273c-3.965-1-6.377-5.043-5.377-9.012
	c0.092-0.367,0.218-0.717,0.359-1.059L54.53,74.142c-0.646,0.177-1.302,0.265-1.955,0.265c-0.724,0-1.441-0.12-2.138-0.333
	c1.314,2.277,1.38,5.185-0.079,7.585c-0.298,0.49-0.648,0.931-1.035,1.331h-2.108c0.805-0.497,1.501-1.156,2.005-1.985
	c1.767-2.906,0.853-6.673-2.021-8.425l-11.081-6.758l-6.364,10.464l10.992,6.704h-2.522L17.991,70.649
	c-3.491-2.129-4.601-6.705-2.475-10.201c1.043-1.716,2.671-2.904,4.602-3.373c1.93-0.469,3.918-0.161,5.603,0.866l20.204,12.323
	c-0.207-0.42-0.376-0.862-0.502-1.323c-1.087-3.979,1.243-8.069,5.186-9.149l25.03-6.858c1.902-0.521,3.9-0.267,5.626,0.719
	c1.725,0.985,2.961,2.577,3.481,4.482c1.087,3.979-1.243,8.069-5.185,9.149l-0.318,0.087l9.445,2.384l0,0.001l11.945,3.015
	C104.596,73.772,107.007,77.814,106.009,81.783z M66.698,69.448l-3.229-11.819l-12.515,3.429c-3.245,0.89-5.162,4.257-4.274,7.507
	c0.437,1.598,1.455,2.908,2.875,3.719c1.42,0.812,3.063,1.023,4.628,0.593L66.698,69.448z M100.31,74.044l-11.944-3.015
	L85.376,82.91l11.945,3.016c1.569,0.396,3.211,0.153,4.615-0.687c1.403-0.839,2.395-2.169,2.791-3.745
	C105.558,78.196,103.573,74.867,100.31,74.044z M102.352,148.687c2.912,2.917,2.912,7.626,0.022,10.521l-18.35,18.376
	c-1.395,1.396-3.257,2.166-5.242,2.166s-3.848-0.77-5.242-2.166c-2.913-2.918-2.913-7.626-0.023-10.521l18.35-18.376
	c1.396-1.396,3.257-2.166,5.242-2.166C99.096,146.521,100.957,147.291,102.352,148.687z M101.445,149.637
	c-1.169-1.171-2.701-1.804-4.336-1.804c-1.634,0-3.166,0.633-4.312,1.781l-9.176,9.189l8.651,8.663l9.173-9.187
	C103.825,155.897,103.825,152.02,101.445,149.637z M57.807,172.626c0,4.125-3.326,7.455-7.414,7.455h-25.95
	c-4.088,0-7.414-3.33-7.414-7.423c0-4.125,3.326-7.455,7.414-7.455h25.95C54.48,165.203,57.807,168.533,57.807,172.626z
	 M56.494,172.658c0-3.401-2.737-6.143-6.101-6.143H37.418v12.253h12.975C53.757,178.768,56.494,176.027,56.494,172.658z"/>
</svg>
