<?xml version="1.0" encoding="utf-8"?>
<!-- Generator: Adobe Illustrator 23.0.6, SVG Export Plug-In . SVG Version: 6.00 Build 0)  -->
<svg version="1.1" id="Layer_1" xmlns="http://www.w3.org/2000/svg" xmlns:xlink="http://www.w3.org/1999/xlink" x="0px" y="0px"
	 viewBox="0 0 86.005 78.938" style="enable-background:new 0 0 86.005 78.938;" xml:space="preserve">
<style type="text/css">
	.st0{fill:#FFFFFF;}
</style>
<path class="st0" d="M41.602,15.469v-6c0-0.773,0.626-1.4,1.4-1.4s1.4,0.626,1.4,1.4v6c0,0.773-0.626,1.4-1.4,1.4
	S41.602,16.242,41.602,15.469z M59.973,23.898c0.358,0,0.717-0.137,0.99-0.41l4.243-4.243c0.273-0.273,0.41-0.631,0.41-0.99
	s-0.137-0.717-0.41-0.99c-0.546-0.547-1.434-0.547-1.979,0l-4.243,4.243c-0.273,0.273-0.41,0.631-0.41,0.99s0.137,0.717,0.41,0.99
	C59.256,23.761,59.615,23.898,59.973,23.898z M73.002,38.068h-6c-0.773,0-1.4,0.627-1.4,1.4s0.626,1.4,1.4,1.4h6
	c0.773,0,1.4-0.627,1.4-1.4S73.776,38.068,73.002,38.068z M60.963,55.449c-0.547-0.547-1.433-0.548-1.98,0.001
	c-0.273,0.273-0.41,0.631-0.41,0.989s0.137,0.717,0.41,0.99l4.243,4.242c0.273,0.273,0.631,0.41,0.99,0.41s0.717-0.137,0.99-0.411
	c0.273-0.273,0.41-0.631,0.41-0.989s-0.137-0.717-0.41-0.99L60.963,55.449z M43.002,62.068c-0.773,0-1.4,0.627-1.4,1.4v6
	c0,0.773,0.626,1.4,1.4,1.4s1.4-0.627,1.4-1.4v-6C44.402,62.695,43.776,62.068,43.002,62.068z M25.042,55.449l-2.122,2.121
	c0,0,0,0,0,0.001l-2.121,2.12c-0.273,0.273-0.41,0.632-0.41,0.99s0.136,0.716,0.41,0.989c0.273,0.274,0.632,0.411,0.99,0.411
	s0.716-0.137,0.99-0.41l4.243-4.242c0.273-0.273,0.41-0.632,0.41-0.99s-0.136-0.716-0.41-0.989
	C26.475,54.901,25.589,54.902,25.042,55.449z M19.002,38.068h-6c-0.773,0-1.4,0.627-1.4,1.4s0.626,1.4,1.4,1.4h6
	c0.773,0,1.4-0.627,1.4-1.4S19.776,38.068,19.002,38.068z M57.174,25.297c-7.814-7.815-20.529-7.814-28.342,0
	c-7.814,7.814-7.814,20.529,0,28.343c3.907,3.906,9.039,5.86,14.171,5.86c5.132,0,10.265-1.954,14.171-5.86
	C64.988,45.826,64.988,33.111,57.174,25.297z M25.042,23.488c0.273,0.273,0.631,0.41,0.99,0.41s0.717-0.137,0.99-0.41
	c0.273-0.273,0.41-0.631,0.41-0.99s-0.137-0.717-0.41-0.99l-4.243-4.243c-0.546-0.547-1.434-0.547-1.979,0
	c-0.273,0.273-0.41,0.631-0.41,0.99s0.137,0.717,0.41,0.99L25.042,23.488z"/>
</svg>
