<?xml version="1.0" encoding="utf-8"?>
<!-- Generator: Adobe Illustrator 23.0.6, SVG Export Plug-In . SVG Version: 6.00 Build 0)  -->
<svg version="1.1" id="Layer_1" xmlns="http://www.w3.org/2000/svg" xmlns:xlink="http://www.w3.org/1999/xlink" x="0px" y="0px"
	 viewBox="0 0 86.005 78.938" style="enable-background:new 0 0 86.005 78.938;" xml:space="preserve">
<style type="text/css">
	.st0{fill:#FFFFFF;}
</style>
<path class="st0" d="M41.602,29.158v-6.873c0-0.773,0.626-1.4,1.4-1.4s1.4,0.626,1.4,1.4v6.873c0,0.773-0.626,1.4-1.4,1.4
	S41.602,29.932,41.602,29.158z M62.443,38.611c0.358,0,0.717-0.137,0.99-0.41l4.86-4.86c0.273-0.273,0.41-0.632,0.41-0.99
	c0-0.358-0.138-0.716-0.411-0.99c-0.545-0.546-1.433-0.546-1.979,0l-2.43,2.43c-0.001,0-0.001,0-0.001,0l-2.43,2.43
	c-0.273,0.273-0.41,0.631-0.41,0.99s0.137,0.717,0.41,0.99C61.726,38.474,62.084,38.611,62.443,38.611z M77.002,55.252H65.71
	c-0.726-11.898-10.631-21.355-22.708-21.355s-21.981,9.457-22.708,21.355H9.002c-0.773,0-1.4,0.627-1.4,1.4s0.626,1.4,1.4,1.4
	h11.245h45.51h11.245c0.773,0,1.4-0.627,1.4-1.4S77.776,55.252,77.002,55.252z M22.571,38.201c0.273,0.273,0.631,0.41,0.99,0.41
	s0.717-0.137,0.99-0.41c0.273-0.273,0.41-0.631,0.41-0.99s-0.137-0.717-0.41-0.99l-4.86-4.86c-0.546-0.547-1.434-0.547-1.979,0
	c-0.273,0.273-0.41,0.631-0.41,0.99s0.137,0.717,0.41,0.99L22.571,38.201z"/>
</svg>
